<svg xmlns="http://www.w3.org/2000/svg" xmlns:xlink="http://www.w3.org/1999/xlink" contentStyleType="text/css" height="1210px" preserveAspectRatio="none" style="width:1521px;height:1210px;background:#FFFFFF;" version="1.1" viewBox="0 0 1521 1210" width="1521px" zoomAndPan="magnify"><defs/><g><!--cluster database--><g id="cluster_database"><rect fill="none" height="1004.28" rx="2.5" ry="2.5" style="stroke:#444444;stroke-width:1.0;stroke-dasharray:7.0,7.0;" width="1498" x="7" y="7"/><text fill="#444444" font-family="sans-serif" font-size="16" font-weight="bold" lengthAdjust="spacing" textLength="144" x="684" y="24.4688">&#31038;&#20132;&#23186;&#20307;&#25968;&#25454;&#24211;&#27169;&#22411;</text><text fill="#444444" font-family="sans-serif" font-size="12" font-weight="bold" lengthAdjust="spacing" textLength="67.0137" x="722.4932" y="39.4453">[container]</text></g><!--cluster user--><g id="cluster_user"><rect fill="#85BBF0" height="251.42" rx="2.5" ry="2.5" style="stroke:#78A8D8;stroke-width:1.0;" width="277" x="507" y="74"/><text fill="#000000" font-family="sans-serif" font-size="16" font-weight="bold" lengthAdjust="spacing" textLength="37.4766" x="626.7617" y="91.4688">User</text><text fill="#000000" font-family="sans-serif" font-size="12" font-style="italic" font-weight="bold" lengthAdjust="spacing" textLength="123.1934" x="583.9033" y="106.4453">[Mongoose Schema]</text><text fill="#000000" font-family="sans-serif" font-size="14" font-weight="bold" lengthAdjust="spacing" textLength="4.6143" x="643.1929" y="122.5117">&#160;</text><text fill="#000000" font-family="sans-serif" font-size="14" font-weight="bold" lengthAdjust="spacing" textLength="56" x="617.5" y="139">&#29992;&#25143;&#20449;&#24687;</text></g><!--cluster post--><g id="cluster_post"><rect fill="#85BBF0" height="234.93" rx="2.5" ry="2.5" style="stroke:#78A8D8;stroke-width:1.0;" width="273" x="511" y="431.42"/><text fill="#000000" font-family="sans-serif" font-size="16" font-weight="bold" lengthAdjust="spacing" textLength="35.5625" x="629.7188" y="448.8887">Post</text><text fill="#000000" font-family="sans-serif" font-size="12" font-style="italic" font-weight="bold" lengthAdjust="spacing" textLength="123.1934" x="585.9033" y="463.8653">[Mongoose Schema]</text><text fill="#000000" font-family="sans-serif" font-size="14" font-weight="bold" lengthAdjust="spacing" textLength="4.6143" x="645.1929" y="479.9317">&#160;</text><text fill="#000000" font-family="sans-serif" font-size="14" font-weight="bold" lengthAdjust="spacing" textLength="56" x="619.5" y="496.42">&#24086;&#23376;&#20449;&#24687;</text></g><!--cluster story--><g id="cluster_story"><rect fill="#85BBF0" height="218.45" rx="2.5" ry="2.5" style="stroke:#78A8D8;stroke-width:1.0;" width="277" x="115" y="439.66"/><text fill="#000000" font-family="sans-serif" font-size="16" font-weight="bold" lengthAdjust="spacing" textLength="42.4453" x="232.2773" y="457.1287">Story</text><text fill="#000000" font-family="sans-serif" font-size="12" font-style="italic" font-weight="bold" lengthAdjust="spacing" textLength="123.1934" x="191.9033" y="472.1053">[Mongoose Schema]</text><text fill="#000000" font-family="sans-serif" font-size="14" font-weight="bold" lengthAdjust="spacing" textLength="4.6143" x="251.1929" y="488.1717">&#160;</text><text fill="#000000" font-family="sans-serif" font-size="14" font-weight="bold" lengthAdjust="spacing" textLength="56" x="225.5" y="504.66">&#25925;&#20107;&#20449;&#24687;</text></g><!--cluster comment--><g id="cluster_comment"><rect fill="#85BBF0" height="218.45" rx="2.5" ry="2.5" style="stroke:#78A8D8;stroke-width:1.0;" width="246" x="90" y="752.59"/><text fill="#000000" font-family="sans-serif" font-size="16" font-weight="bold" lengthAdjust="spacing" textLength="79.0156" x="173.4922" y="770.0587">Comment</text><text fill="#000000" font-family="sans-serif" font-size="12" font-style="italic" font-weight="bold" lengthAdjust="spacing" textLength="123.1934" x="151.4033" y="785.0353">[Mongoose Schema]</text><text fill="#000000" font-family="sans-serif" font-size="14" font-weight="bold" lengthAdjust="spacing" textLength="4.6143" x="210.6929" y="801.1017">&#160;</text><text fill="#000000" font-family="sans-serif" font-size="14" font-weight="bold" lengthAdjust="spacing" textLength="56" x="185" y="817.59">&#35780;&#35770;&#20449;&#24687;</text></g><!--cluster like--><g id="cluster_like"><rect fill="#85BBF0" height="201.95" rx="2.5" ry="2.5" style="stroke:#78A8D8;stroke-width:1.0;" width="255" x="424" y="760.84"/><text fill="#000000" font-family="sans-serif" font-size="16" font-weight="bold" lengthAdjust="spacing" textLength="34.0078" x="534.4961" y="778.3087">Like</text><text fill="#000000" font-family="sans-serif" font-size="12" font-style="italic" font-weight="bold" lengthAdjust="spacing" textLength="123.1934" x="489.9033" y="793.2853">[Mongoose Schema]</text><text fill="#000000" font-family="sans-serif" font-size="14" font-weight="bold" lengthAdjust="spacing" textLength="4.6143" x="549.1929" y="809.3517">&#160;</text><text fill="#000000" font-family="sans-serif" font-size="14" font-weight="bold" lengthAdjust="spacing" textLength="56" x="523.5" y="825.84">&#28857;&#36190;&#20449;&#24687;</text></g><!--cluster message--><g id="cluster_message"><rect fill="#85BBF0" height="218.45" rx="2.5" ry="2.5" style="stroke:#78A8D8;stroke-width:1.0;" width="286" x="824" y="439.66"/><text fill="#000000" font-family="sans-serif" font-size="16" font-weight="bold" lengthAdjust="spacing" textLength="71.3281" x="931.3359" y="457.1287">Message</text><text fill="#000000" font-family="sans-serif" font-size="12" font-style="italic" font-weight="bold" lengthAdjust="spacing" textLength="123.1934" x="905.4033" y="472.1053">[Mongoose Schema]</text><text fill="#000000" font-family="sans-serif" font-size="14" font-weight="bold" lengthAdjust="spacing" textLength="4.6143" x="964.6929" y="488.1717">&#160;</text><text fill="#000000" font-family="sans-serif" font-size="14" font-weight="bold" lengthAdjust="spacing" textLength="56" x="939" y="504.66">&#31169;&#20449;&#20449;&#24687;</text></g><!--cluster notification--><g id="cluster_notification"><rect fill="#85BBF0" height="234.93" rx="2.5" ry="2.5" style="stroke:#78A8D8;stroke-width:1.0;" width="273" x="839" y="744.35"/><text fill="#000000" font-family="sans-serif" font-size="16" font-weight="bold" lengthAdjust="spacing" textLength="96.375" x="927.3125" y="761.8187">Notification</text><text fill="#000000" font-family="sans-serif" font-size="12" font-style="italic" font-weight="bold" lengthAdjust="spacing" textLength="123.1934" x="913.9033" y="776.7953">[Mongoose Schema]</text><text fill="#000000" font-family="sans-serif" font-size="14" font-weight="bold" lengthAdjust="spacing" textLength="4.6143" x="973.1929" y="792.8617">&#160;</text><text fill="#000000" font-family="sans-serif" font-size="14" font-weight="bold" lengthAdjust="spacing" textLength="56" x="947.5" y="809.35">&#36890;&#30693;&#20449;&#24687;</text></g><!--cluster follow--><g id="cluster_follow"><rect fill="#85BBF0" height="218.45" rx="2.5" ry="2.5" style="stroke:#78A8D8;stroke-width:1.0;" width="244" x="1229" y="439.66"/><text fill="#000000" font-family="sans-serif" font-size="16" font-weight="bold" lengthAdjust="spacing" textLength="53.8359" x="1324.082" y="457.1287">Follow</text><text fill="#000000" font-family="sans-serif" font-size="12" font-style="italic" font-weight="bold" lengthAdjust="spacing" textLength="123.1934" x="1289.4033" y="472.1053">[Mongoose Schema]</text><text fill="#000000" font-family="sans-serif" font-size="14" font-weight="bold" lengthAdjust="spacing" textLength="4.6143" x="1348.6929" y="488.1717">&#160;</text><text fill="#000000" font-family="sans-serif" font-size="14" font-weight="bold" lengthAdjust="spacing" textLength="56" x="1323" y="504.66">&#20851;&#27880;&#20851;&#31995;</text></g><!--entity user_fields--><g id="elem_user_fields"><rect fill="#85BBF0" height="135.418" rx="2.5" ry="2.5" style="stroke:#78A8D8;stroke-width:0.5;" width="210.2305" x="530.88" y="166"/><text fill="#000000" font-family="sans-serif" font-size="16" font-weight="bold" lengthAdjust="spacing" textLength="32" x="619.9952" y="191.4688">&#23383;&#27573;</text><text fill="#000000" font-family="sans-serif" font-size="12" font-style="italic" lengthAdjust="spacing" textLength="52.377" x="609.8068" y="206.4453">[Schema]</text><text fill="#000000" font-family="sans-serif" font-size="14" lengthAdjust="spacing" textLength="4.4297" x="633.7804" y="222.5117">&#160;</text><text fill="#000000" font-family="sans-serif" font-size="14" lengthAdjust="spacing" textLength="71.0732" x="540.88" y="239">username,</text><text fill="#000000" font-family="sans-serif" font-size="14" lengthAdjust="spacing" textLength="4.4297" x="611.9532" y="239">&#160;</text><text fill="#000000" font-family="sans-serif" font-size="14" lengthAdjust="spacing" textLength="41.125" x="616.3829" y="239">email,</text><text fill="#000000" font-family="sans-serif" font-size="14" lengthAdjust="spacing" textLength="4.4297" x="657.5079" y="239">&#160;</text><text fill="#000000" font-family="sans-serif" font-size="14" lengthAdjust="spacing" textLength="69.1729" x="661.9376" y="239">password,</text><text fill="#000000" font-family="sans-serif" font-size="14" lengthAdjust="spacing" textLength="65.3037" x="552.1866" y="255.4883">fullName,</text><text fill="#000000" font-family="sans-serif" font-size="14" lengthAdjust="spacing" textLength="4.4297" x="617.4904" y="255.4883">&#160;</text><text fill="#000000" font-family="sans-serif" font-size="14" lengthAdjust="spacing" textLength="25.8877" x="621.92" y="255.4883">bio,</text><text fill="#000000" font-family="sans-serif" font-size="14" lengthAdjust="spacing" textLength="4.4297" x="647.8077" y="255.4883">&#160;</text><text fill="#000000" font-family="sans-serif" font-size="14" lengthAdjust="spacing" textLength="67.5664" x="652.2374" y="255.4883">profilePic,</text><text fill="#000000" font-family="sans-serif" font-size="14" lengthAdjust="spacing" textLength="56.0479" x="554.0392" y="271.9766">website,</text><text fill="#000000" font-family="sans-serif" font-size="14" lengthAdjust="spacing" textLength="4.4297" x="610.087" y="271.9766">&#160;</text><text fill="#000000" font-family="sans-serif" font-size="14" lengthAdjust="spacing" textLength="51.9873" x="614.5167" y="271.9766">gender,</text><text fill="#000000" font-family="sans-serif" font-size="14" lengthAdjust="spacing" textLength="4.4297" x="666.504" y="271.9766">&#160;</text><text fill="#000000" font-family="sans-serif" font-size="14" lengthAdjust="spacing" textLength="47.0176" x="670.9337" y="271.9766">phone,</text><text fill="#000000" font-family="sans-serif" font-size="14" lengthAdjust="spacing" textLength="61.1406" x="571.3512" y="288.4648">isPrivate,</text><text fill="#000000" font-family="sans-serif" font-size="14" lengthAdjust="spacing" textLength="4.4297" x="632.4918" y="288.4648">&#160;</text><text fill="#000000" font-family="sans-serif" font-size="14" lengthAdjust="spacing" textLength="63.7178" x="636.9215" y="288.4648">isVerified</text></g><!--entity post_fields--><g id="elem_post_fields"><rect fill="#85BBF0" height="118.9297" rx="2.5" ry="2.5" style="stroke:#78A8D8;stroke-width:0.5;" width="205.7051" x="535.15" y="523.42"/><text fill="#000000" font-family="sans-serif" font-size="16" font-weight="bold" lengthAdjust="spacing" textLength="32" x="622.0025" y="548.8888">&#23383;&#27573;</text><text fill="#000000" font-family="sans-serif" font-size="12" font-style="italic" lengthAdjust="spacing" textLength="52.377" x="611.8141" y="563.8653">[Schema]</text><text fill="#000000" font-family="sans-serif" font-size="14" lengthAdjust="spacing" textLength="4.4297" x="635.7877" y="579.9317">&#160;</text><text fill="#000000" font-family="sans-serif" font-size="14" lengthAdjust="spacing" textLength="46.6279" x="553.6266" y="596.42">userId,</text><text fill="#000000" font-family="sans-serif" font-size="14" lengthAdjust="spacing" textLength="4.4297" x="600.2545" y="596.42">&#160;</text><text fill="#000000" font-family="sans-serif" font-size="14" lengthAdjust="spacing" textLength="54.7148" x="604.6842" y="596.42">caption,</text><text fill="#000000" font-family="sans-serif" font-size="14" lengthAdjust="spacing" textLength="4.4297" x="659.399" y="596.42">&#160;</text><text fill="#000000" font-family="sans-serif" font-size="14" lengthAdjust="spacing" textLength="58.5498" x="663.8287" y="596.42">location,</text><text fill="#000000" font-family="sans-serif" font-size="14" lengthAdjust="spacing" textLength="62.0498" x="566.4918" y="612.9083">images[],</text><text fill="#000000" font-family="sans-serif" font-size="14" lengthAdjust="spacing" textLength="4.4297" x="628.5416" y="612.9083">&#160;</text><text fill="#000000" font-family="sans-serif" font-size="14" lengthAdjust="spacing" textLength="76.542" x="632.9713" y="612.9083">likesCount,</text><text fill="#000000" font-family="sans-serif" font-size="14" lengthAdjust="spacing" textLength="116.1016" x="545.15" y="629.3966">commentsCount,</text><text fill="#000000" font-family="sans-serif" font-size="14" lengthAdjust="spacing" textLength="4.4297" x="661.2516" y="629.3966">&#160;</text><text fill="#000000" font-family="sans-serif" font-size="14" lengthAdjust="spacing" textLength="65.1738" x="665.6813" y="629.3966">createdAt</text></g><!--entity story_fields--><g id="elem_story_fields"><rect fill="#85BBF0" height="102.4414" rx="2.5" ry="2.5" style="stroke:#78A8D8;stroke-width:0.5;" width="210.0869" x="138.96" y="531.66"/><text fill="#000000" font-family="sans-serif" font-size="16" font-weight="bold" lengthAdjust="spacing" textLength="32" x="228.0035" y="557.1288">&#23383;&#27573;</text><text fill="#000000" font-family="sans-serif" font-size="12" font-style="italic" lengthAdjust="spacing" textLength="52.377" x="217.815" y="572.1053">[Schema]</text><text fill="#000000" font-family="sans-serif" font-size="14" lengthAdjust="spacing" textLength="4.4297" x="241.7886" y="588.1717">&#160;</text><text fill="#000000" font-family="sans-serif" font-size="14" lengthAdjust="spacing" textLength="46.6279" x="148.96" y="604.66">userId,</text><text fill="#000000" font-family="sans-serif" font-size="14" lengthAdjust="spacing" textLength="4.4297" x="195.5879" y="604.66">&#160;</text><text fill="#000000" font-family="sans-serif" font-size="14" lengthAdjust="spacing" textLength="65.3652" x="200.0176" y="604.66">mediaUrl,</text><text fill="#000000" font-family="sans-serif" font-size="14" lengthAdjust="spacing" textLength="4.4297" x="265.3829" y="604.66">&#160;</text><text fill="#000000" font-family="sans-serif" font-size="14" lengthAdjust="spacing" textLength="69.2344" x="269.8125" y="604.66">expiresAt,</text><text fill="#000000" font-family="sans-serif" font-size="14" lengthAdjust="spacing" textLength="59.6504" x="214.1783" y="621.1483">viewers[]</text></g><!--entity comment_fields--><g id="elem_comment_fields"><rect fill="#85BBF0" height="102.4414" rx="2.5" ry="2.5" style="stroke:#78A8D8;stroke-width:0.5;" width="178.3955" x="113.8" y="844.59"/><text fill="#000000" font-family="sans-serif" font-size="16" font-weight="bold" lengthAdjust="spacing" textLength="32" x="186.9978" y="870.0587">&#23383;&#27573;</text><text fill="#000000" font-family="sans-serif" font-size="12" font-style="italic" lengthAdjust="spacing" textLength="52.377" x="176.8093" y="885.0353">[Schema]</text><text fill="#000000" font-family="sans-serif" font-size="14" lengthAdjust="spacing" textLength="4.4297" x="200.7829" y="901.1017">&#160;</text><text fill="#000000" font-family="sans-serif" font-size="14" lengthAdjust="spacing" textLength="46.6279" x="123.8" y="917.59">userId,</text><text fill="#000000" font-family="sans-serif" font-size="14" lengthAdjust="spacing" textLength="4.4297" x="170.4279" y="917.59">&#160;</text><text fill="#000000" font-family="sans-serif" font-size="14" lengthAdjust="spacing" textLength="47.0586" x="174.8576" y="917.59">postId,</text><text fill="#000000" font-family="sans-serif" font-size="14" lengthAdjust="spacing" textLength="4.4297" x="221.9162" y="917.59">&#160;</text><text fill="#000000" font-family="sans-serif" font-size="14" lengthAdjust="spacing" textLength="55.8496" x="226.3459" y="917.59">content,</text><text fill="#000000" font-family="sans-serif" font-size="14" lengthAdjust="spacing" textLength="65.1738" x="170.4108" y="934.0783">createdAt</text></g><!--entity like_fields--><g id="elem_like_fields"><rect fill="#85BBF0" height="85.9531" rx="2.5" ry="2.5" style="stroke:#78A8D8;stroke-width:0.5;" width="187.7197" x="448.14" y="852.84"/><text fill="#000000" font-family="sans-serif" font-size="16" font-weight="bold" lengthAdjust="spacing" textLength="32" x="525.9999" y="878.3087">&#23383;&#27573;</text><text fill="#000000" font-family="sans-serif" font-size="12" font-style="italic" lengthAdjust="spacing" textLength="52.377" x="515.8114" y="893.2853">[Schema]</text><text fill="#000000" font-family="sans-serif" font-size="14" lengthAdjust="spacing" textLength="4.4297" x="539.785" y="909.3517">&#160;</text><text fill="#000000" font-family="sans-serif" font-size="14" lengthAdjust="spacing" textLength="46.6279" x="458.14" y="925.84">userId,</text><text fill="#000000" font-family="sans-serif" font-size="14" lengthAdjust="spacing" textLength="4.4297" x="504.7679" y="925.84">&#160;</text><text fill="#000000" font-family="sans-serif" font-size="14" lengthAdjust="spacing" textLength="47.0586" x="509.1976" y="925.84">postId,</text><text fill="#000000" font-family="sans-serif" font-size="14" lengthAdjust="spacing" textLength="4.4297" x="556.2562" y="925.84">&#160;</text><text fill="#000000" font-family="sans-serif" font-size="14" lengthAdjust="spacing" textLength="65.1738" x="560.6859" y="925.84">createdAt</text></g><!--entity message_fields--><g id="elem_message_fields"><rect fill="#85BBF0" height="102.4414" rx="2.5" ry="2.5" style="stroke:#78A8D8;stroke-width:0.5;" width="218.543" x="847.73" y="531.66"/><text fill="#000000" font-family="sans-serif" font-size="16" font-weight="bold" lengthAdjust="spacing" textLength="32" x="941.0015" y="557.1288">&#23383;&#27573;</text><text fill="#000000" font-family="sans-serif" font-size="12" font-style="italic" lengthAdjust="spacing" textLength="52.377" x="930.813" y="572.1053">[Schema]</text><text fill="#000000" font-family="sans-serif" font-size="14" lengthAdjust="spacing" textLength="4.4297" x="954.7866" y="588.1717">&#160;</text><text fill="#000000" font-family="sans-serif" font-size="14" lengthAdjust="spacing" textLength="63.2393" x="857.73" y="604.66">senderId,</text><text fill="#000000" font-family="sans-serif" font-size="14" lengthAdjust="spacing" textLength="4.4297" x="920.9693" y="604.66">&#160;</text><text fill="#000000" font-family="sans-serif" font-size="14" lengthAdjust="spacing" textLength="70.5947" x="925.3989" y="604.66">receiverId,</text><text fill="#000000" font-family="sans-serif" font-size="14" lengthAdjust="spacing" textLength="4.4297" x="995.9937" y="604.66">&#160;</text><text fill="#000000" font-family="sans-serif" font-size="14" lengthAdjust="spacing" textLength="55.8496" x="1000.4234" y="604.66">content,</text><text fill="#000000" font-family="sans-serif" font-size="14" lengthAdjust="spacing" textLength="65.3652" x="862.898" y="621.1483">mediaUrl,</text><text fill="#000000" font-family="sans-serif" font-size="14" lengthAdjust="spacing" textLength="4.4297" x="928.2632" y="621.1483">&#160;</text><text fill="#000000" font-family="sans-serif" font-size="14" lengthAdjust="spacing" textLength="48.8086" x="932.6929" y="621.1483">isRead,</text><text fill="#000000" font-family="sans-serif" font-size="14" lengthAdjust="spacing" textLength="4.4297" x="981.5015" y="621.1483">&#160;</text><text fill="#000000" font-family="sans-serif" font-size="14" lengthAdjust="spacing" textLength="65.1738" x="985.9312" y="621.1483">createdAt</text></g><!--entity notification_fields--><g id="elem_notification_fields"><rect fill="#85BBF0" height="118.9297" rx="2.5" ry="2.5" style="stroke:#78A8D8;stroke-width:0.5;" width="205.6367" x="863.18" y="836.35"/><text fill="#000000" font-family="sans-serif" font-size="16" font-weight="bold" lengthAdjust="spacing" textLength="32" x="949.9984" y="861.8187">&#23383;&#27573;</text><text fill="#000000" font-family="sans-serif" font-size="12" font-style="italic" lengthAdjust="spacing" textLength="52.377" x="939.8099" y="876.7953">[Schema]</text><text fill="#000000" font-family="sans-serif" font-size="14" lengthAdjust="spacing" textLength="4.4297" x="963.7835" y="892.8617">&#160;</text><text fill="#000000" font-family="sans-serif" font-size="14" lengthAdjust="spacing" textLength="76.6035" x="874.8514" y="909.35">recipientId,</text><text fill="#000000" font-family="sans-serif" font-size="14" lengthAdjust="spacing" textLength="4.4297" x="951.4549" y="909.35">&#160;</text><text fill="#000000" font-family="sans-serif" font-size="14" lengthAdjust="spacing" textLength="63.2393" x="955.8846" y="909.35">senderId,</text><text fill="#000000" font-family="sans-serif" font-size="14" lengthAdjust="spacing" textLength="4.4297" x="1019.1238" y="909.35">&#160;</text><text fill="#000000" font-family="sans-serif" font-size="14" lengthAdjust="spacing" textLength="33.5918" x="1023.5535" y="909.35">type,</text><text fill="#000000" font-family="sans-serif" font-size="14" lengthAdjust="spacing" textLength="47.0586" x="873.18" y="925.8383">postId,</text><text fill="#000000" font-family="sans-serif" font-size="14" lengthAdjust="spacing" textLength="4.4297" x="920.2386" y="925.8383">&#160;</text><text fill="#000000" font-family="sans-serif" font-size="14" lengthAdjust="spacing" textLength="80.9102" x="924.6683" y="925.8383">commentId,</text><text fill="#000000" font-family="sans-serif" font-size="14" lengthAdjust="spacing" textLength="4.4297" x="1005.5784" y="925.8383">&#160;</text><text fill="#000000" font-family="sans-serif" font-size="14" lengthAdjust="spacing" textLength="48.8086" x="1010.0081" y="925.8383">isRead,</text><text fill="#000000" font-family="sans-serif" font-size="14" lengthAdjust="spacing" textLength="65.1738" x="933.4114" y="942.3266">createdAt</text></g><!--entity follow_fields--><g id="elem_follow_fields"><rect fill="#85BBF0" height="102.4414" rx="2.5" ry="2.5" style="stroke:#78A8D8;stroke-width:0.5;" width="176.4268" x="1252.79" y="531.66"/><text fill="#000000" font-family="sans-serif" font-size="16" font-weight="bold" lengthAdjust="spacing" textLength="32" x="1325.0034" y="557.1288">&#23383;&#27573;</text><text fill="#000000" font-family="sans-serif" font-size="12" font-style="italic" lengthAdjust="spacing" textLength="52.377" x="1314.8149" y="572.1053">[Schema]</text><text fill="#000000" font-family="sans-serif" font-size="14" lengthAdjust="spacing" textLength="4.4297" x="1338.7885" y="588.1717">&#160;</text><text fill="#000000" font-family="sans-serif" font-size="14" lengthAdjust="spacing" textLength="72.0303" x="1262.79" y="604.66">followerId,</text><text fill="#000000" font-family="sans-serif" font-size="14" lengthAdjust="spacing" textLength="4.4297" x="1334.8203" y="604.66">&#160;</text><text fill="#000000" font-family="sans-serif" font-size="14" lengthAdjust="spacing" textLength="79.9668" x="1339.25" y="604.66">followingId,</text><text fill="#000000" font-family="sans-serif" font-size="14" lengthAdjust="spacing" textLength="65.1738" x="1308.4165" y="621.1483">createdAt</text></g><!--link user to post--><g id="link_user_post"><path d="M776,327.1284 C776,328.3242 776,329.5267 776,330.7354 C776,335.5705 776,340.5066 776,345.5236 C776,365.5915 776,386.9528 776,408.3137 C776,413.654 776,418.9942 776,424.3142 C776,425.6442 776,426.9729 776,428.3 C776,428.9636 776,429.6268 776,430.2895 C776,430.6209 776,422.9522 776,423.2833 " fill="none" id="user-to-post" style="stroke:#666666;stroke-width:1.0;"/><polygon fill="#666666" points="776,431.2833,779,423.2833,773,423.2833,776,431.2833" style="stroke:#666666;stroke-width:1.0;"/><text fill="#666666" font-family="sans-serif" font-size="12" font-weight="bold" lengthAdjust="spacing" textLength="20.1035" x="782.8506" y="376.0216">1:N</text><text fill="#666666" font-family="sans-serif" font-size="12" font-style="italic" lengthAdjust="spacing" textLength="31.8047" x="777" y="390.1544">[&#21019;&#24314;]</text></g><!--link user to story--><g id="link_user_story"><path d="M769.5283,325.7077 C769.4413,325.8671 769.3537,326.0261 769.2654,326.1848 C768.9123,326.8192 768.5488,327.4472 768.1745,328.0682 C765.1803,333.0366 761.5,337.5613 757,341.42 C742.45,353.9 426.2,336.54 412,349.42 C393.0375,366.6325 381.7125,389.4519 375.4142,414.0761 C373.8396,420.2321 372.5792,426.501 371.5922,432.8233 C371.3455,434.4038 371.1158,435.9877 370.9026,437.574 C370.8493,437.9706 371.8218,430.4332 371.7705,430.8301 " fill="none" id="user-to-story" style="stroke:#666666;stroke-width:1.0;"/><polygon fill="#666666" points="370.7457,438.7642,374.7458,431.2144,368.7952,430.4458,370.7457,438.7642" style="stroke:#666666;stroke-width:1.0;"/><text fill="#666666" font-family="sans-serif" font-size="12" font-weight="bold" lengthAdjust="spacing" textLength="20.1035" x="418.8506" y="376.0216">1:N</text><text fill="#666666" font-family="sans-serif" font-size="12" font-style="italic" lengthAdjust="spacing" textLength="31.8047" x="413" y="390.1544">[&#21019;&#24314;]</text></g><!--link user to comment--><g id="link_user_comment"><path d="M769.5378,325.7236 C769.4508,325.8829 769.3631,326.0418 769.2748,326.2003 C768.9215,326.8344 768.5577,327.462 768.1831,328.0826 C765.1869,333.0475 761.5038,337.5675 757,341.42 C748.83,348.41 380.67,348.07 370,349.42 C243.16,365.5 169.36,315.18 90,415.42 C16.36,508.44 15.27,590.21 90,682.35 C152.37,759.26 241.14,655.31 308,728.35 C332.765,755.405 337.9975,796.1525 336.925,830.56 C336.7909,834.8609 336.5584,839.0628 336.2531,843.1265 C336.1768,844.1424 336.7748,837.1786 336.6898,838.1766 " fill="none" id="user-to-comment" style="stroke:#666666;stroke-width:1.0;"/><polygon fill="#666666" points="336.0109,846.1477,339.679,838.4312,333.7006,837.922,336.0109,846.1477" style="stroke:#666666;stroke-width:1.0;"/><text fill="#666666" font-family="sans-serif" font-size="12" font-weight="bold" lengthAdjust="spacing" textLength="20.1035" x="96.8506" y="580.4916">1:N</text><text fill="#666666" font-family="sans-serif" font-size="12" font-style="italic" lengthAdjust="spacing" textLength="31.8047" x="91" y="594.6244">[&#21457;&#34920;]</text></g><!--link user to like--><g id="link_user_like"><path d="M767.5174,325.8851 C767.3522,326.2161 767.1848,326.5458 767.015,326.8743 C764.2989,332.1289 760.9975,337.0437 757,341.42 C672.79,433.6 566.53,320.01 486,415.42 C398.24,519.39 364.81,622.17 459,720.35 C473.86,735.84 636.29,713.73 652,728.35 C678.835,753.315 683.8575,794.03 682.0388,828.9438 C681.5841,837.6722 680.7018,846.038 679.6259,853.7046 C679.4914,854.6629 679.3539,855.6103 679.2138,856.5461 C679.1437,857.014 680.2927,849.5725 680.2214,850.0346 " fill="none" id="user-to-like" style="stroke:#666666;stroke-width:1.0;"/><polygon fill="#666666" points="679.0018,857.941,683.1863,850.4919,677.2565,849.5772,679.0018,857.941" style="stroke:#666666;stroke-width:1.0;"/><text fill="#666666" font-family="sans-serif" font-size="12" font-weight="bold" lengthAdjust="spacing" textLength="20.1035" x="492.8506" y="580.4916">1:N</text><text fill="#666666" font-family="sans-serif" font-size="12" font-style="italic" lengthAdjust="spacing" textLength="31.8047" x="487" y="594.6244">[&#28857;&#36190;]</text></g><!--link user to message--><g id="link_user_message"><path d="M784.2606,236.7119 C784.6149,236.8017 784.9797,236.8946 785.355,236.9906 C786.1055,237.1827 786.8977,237.3872 787.7303,237.6044 C794.3908,239.3418 803.636,241.887 814.8083,245.3059 C837.1528,252.1438 867.2056,262.4763 899.7063,276.83 C964.7075,305.5375 1039.5,350.33 1082,415.42 C1084.5063,419.2587 1086.7798,423.2552 1088.8398,427.3755 C1089.8698,429.4357 1090.8464,431.5267 1091.772,433.6445 C1092.2349,434.7034 1092.6849,435.769 1093.1225,436.8407 C1093.3413,437.3766 1093.557,437.914 1093.7697,438.4529 C1093.876,438.7223 1091.0888,431.5334 1091.1936,431.8036 " fill="none" id="user-to-message" style="stroke:#666666;stroke-width:1.0;"/><polygon fill="#666666" points="1094.0863,439.2623,1093.9906,430.7188,1088.3966,432.8883,1094.0863,439.2623" style="stroke:#666666;stroke-width:1.0;"/><text fill="#666666" font-family="sans-serif" font-size="12" font-weight="bold" lengthAdjust="spacing" textLength="20.1035" x="1093.0171" y="376.0216">1:N</text><text fill="#666666" font-family="sans-serif" font-size="12" font-style="italic" lengthAdjust="spacing" textLength="62.0977" x="1072.02" y="390.1544">[&#21457;&#36865;/&#25509;&#25910;]</text></g><!--link user to notification--><g id="link_user_notification"><path d="M784.394,235.9841 C784.6106,236.0178 784.831,236.0521 785.0554,236.087 C786.8501,236.3666 788.8925,236.688 791.1654,237.0506 C800.2567,238.501 813.034,240.6105 828.3867,243.3353 C859.0922,248.785 900.0994,256.6963 942.5238,266.72 C1027.3725,286.7675 1117.89,315.265 1143,349.42 C1214.41,446.555 1205.37,581.54 1178.1262,692.915 C1164.5044,748.6025 1146.3316,798.3875 1131.3886,834.5875 C1123.9171,852.6875 1120.6679,860.1567 1115.7839,870.5039 " fill="none" id="user-to-notification" style="stroke:#666666;stroke-width:1.0;"/><polygon fill="#666666" points="1112.3691,877.7384,1118.4969,871.7844,1113.0709,869.2233,1112.3691,877.7384" style="stroke:#666666;stroke-width:1.0;"/><text fill="#666666" font-family="sans-serif" font-size="12" font-weight="bold" lengthAdjust="spacing" textLength="20.1035" x="1205.0606" y="580.4916">1:N</text><text fill="#666666" font-family="sans-serif" font-size="12" font-style="italic" lengthAdjust="spacing" textLength="31.8047" x="1199.21" y="594.6244">[&#25509;&#25910;]</text></g><!--link user to follow--><g id="link_user_follow"><path d="M784.0928,236.8451 C784.2742,236.8931 784.4584,236.9419 784.6455,236.9914 C785.0198,237.0905 785.4055,237.1927 785.8026,237.2979 C786.5969,237.5084 787.4367,237.731 788.3211,237.9656 C795.3959,239.8425 805.3217,242.4851 817.5884,245.7752 C842.1219,252.3553 876.0188,261.5256 915.1975,272.3412 C993.555,293.9725 1093.04,322.185 1181,349.42 C1258.21,373.33 1274.24,390.9 1353.36,407.42 C1373.37,411.6 1430.31,401.2 1445,415.42 C1471.35,440.93 1476.6075,481.655 1475.1513,516.4375 C1474.7872,525.1331 1475.0223,525.5225 1474.0437,533.1447 " fill="none" id="user-to-follow" style="stroke:#666666;stroke-width:1.0;"/><polygon fill="#666666" points="1473.0249,541.0796,1477.0192,533.5267,1471.0681,532.7627,1473.0249,541.0796" style="stroke:#666666;stroke-width:1.0;"/><text fill="#666666" font-family="sans-serif" font-size="12" font-weight="bold" lengthAdjust="spacing" textLength="23.0801" x="1422.1647" y="362.0216">N:M</text><text fill="#666666" font-family="sans-serif" font-size="12" font-style="italic" lengthAdjust="spacing" textLength="31.8047" x="1417.8024" y="376.1544">[&#20851;&#27880;]</text><text fill="#666666" font-family="sans-serif" font-size="12" lengthAdjust="spacing" textLength="3.7969" x="1431.8063" y="390.2872">&#160;</text><text fill="#666666" font-family="sans-serif" font-size="12" lengthAdjust="spacing" textLength="158.6895" x="1354.36" y="404.42">&#36890;&#36807;followerId&#21644;followingId</text></g><!--link post to comment--><g id="link_post_comment"><path d="M768.6582,666.3911 C768.5814,666.5429 768.5042,666.6943 768.4263,666.8454 C768.2707,667.1476 768.1129,667.4485 767.9528,667.748 C767.6328,668.3472 767.3038,668.941 766.9658,669.5291 C764.2616,674.2338 760.9762,678.5725 757,682.35 C747.73,691.16 712.67,688.56 700,690.35 C580.88,707.16 532.85,662.76 432,728.35 C396.005,751.76 370.2475,792.4525 353.37,827.7438 C349.1506,836.5666 345.4863,845.0518 342.3557,852.845 C340.7904,856.7416 339.3585,860.4652 338.0575,863.9715 C337.407,865.7247 339.4803,859.8897 338.8948,861.5287 " fill="none" id="post-to-comment" style="stroke:#666666;stroke-width:1.0;"/><polygon fill="#666666" points="336.2037,869.0625,341.72,862.5379,336.0697,860.5195,336.2037,869.0625" style="stroke:#666666;stroke-width:1.0;"/><text fill="#666666" font-family="sans-serif" font-size="12" font-weight="bold" lengthAdjust="spacing" textLength="20.1035" x="706.8506" y="702.9516">1:N</text><text fill="#666666" font-family="sans-serif" font-size="12" font-style="italic" lengthAdjust="spacing" textLength="31.8047" x="701" y="717.0844">[&#25317;&#26377;]</text></g><!--link post to like--><g id="link_post_like"><path d="M761.7863,666.5233 C760.3263,671.9216 758.7338,677.2388 757,682.35 C755.72,686.11 754.63,686.72 753,690.35 C733.24,734.3 713.0675,784.5175 697.675,824.1863 C693.8269,834.1034 690.2775,843.3613 687.108,851.6972 C685.5233,855.8651 684.0335,859.8025 682.6488,863.4765 C681.9565,865.3136 681.2904,867.0848 680.6519,868.786 C680.3327,869.6366 680.0203,870.4698 679.715,871.2849 C679.5623,871.6925 679.4114,872.0955 679.2623,872.494 C679.1877,872.6933 681.9161,865.3983 681.8425,865.5953 " fill="none" id="post-to-like" style="stroke:#666666;stroke-width:1.0;"/><polygon fill="#666666" points="679.04,873.0884,684.6524,866.6462,679.0326,864.5444,679.04,873.0884" style="stroke:#666666;stroke-width:1.0;"/><text fill="#666666" font-family="sans-serif" font-size="12" font-weight="bold" lengthAdjust="spacing" textLength="20.1035" x="759.8506" y="702.9516">1:N</text><text fill="#666666" font-family="sans-serif" font-size="12" font-style="italic" lengthAdjust="spacing" textLength="31.8047" x="754" y="717.0844">[&#25317;&#26377;]</text></g><!--link post to notification--><g id="link_post_notification"><path d="M784.0473,610.6152 C784.1007,610.7619 784.1544,610.9089 784.2084,611.0564 C784.3164,611.3512 784.4256,611.6475 784.5359,611.9452 C784.9771,613.136 785.4369,614.3494 785.9155,615.5821 C786.8728,618.0475 787.9055,620.5903 789.0163,623.185 C797.9025,643.9425 811.785,668.02 832,682.35 C925.23,748.45 1006.91,644.91 1085,728.35 C1110.045,755.11 1115.04,795.855 1113.6538,830.335 C1113.4805,834.645 1113.2075,838.8571 1112.8615,842.9318 C1112.6885,844.9691 1112.4972,846.9721 1112.2911,848.9358 C1112.2395,849.4267 1112.187,849.9151 1112.1337,850.4011 C1112.107,850.644 1112.9719,842.9362 1112.9448,843.1779 " fill="none" id="post-to-notification" style="stroke:#666666;stroke-width:1.0;"/><polygon fill="#666666" points="1112.053,851.128,1115.9261,843.5123,1109.9635,842.8435,1112.053,851.128" style="stroke:#666666;stroke-width:1.0;"/><text fill="#666666" font-family="sans-serif" font-size="12" font-weight="bold" lengthAdjust="spacing" textLength="20.1035" x="1082.4606" y="702.9516">1:N</text><text fill="#666666" font-family="sans-serif" font-size="12" font-style="italic" lengthAdjust="spacing" textLength="31.8047" x="1076.61" y="717.0844">[&#35302;&#21457;]</text></g><text fill="#000000" font-family="sans-serif" font-size="14" font-weight="bold" lengthAdjust="spacing" textLength="52.2539" x="1344.4782" y="1048.8152">Legend</text><text fill="#FFFFFF" font-family="sans-serif" font-size="14" lengthAdjust="spacing" textLength="4.4297" x="1396.7321" y="1048.8152">&#160;</text><rect fill="#08427B" height="16.4883" style="stroke:none;stroke-width:1.0;" width="145.5713" x="1344.4782" y="1051.7683"/><text fill="#FFFFFF" font-family="sans-serif" font-size="14" lengthAdjust="spacing" textLength="46.7646" x="1348.9079" y="1065.3034">person</text><rect fill="#1168BD" height="16.4883" style="stroke:none;stroke-width:1.0;" width="145.5713" x="1344.4782" y="1068.2566"/><text fill="#FFFFFF" font-family="sans-serif" font-size="14" lengthAdjust="spacing" textLength="47.6943" x="1348.9079" y="1081.7917">system</text><rect fill="#438DD5" height="16.4883" style="stroke:none;stroke-width:1.0;" width="145.5713" x="1344.4782" y="1084.7448"/><text fill="#FFFFFF" font-family="sans-serif" font-size="14" lengthAdjust="spacing" textLength="63.6904" x="1348.9079" y="1098.28">container</text><rect fill="#85BBF0" height="16.4883" style="stroke:none;stroke-width:1.0;" width="145.5713" x="1344.4782" y="1101.2331"/><text fill="#FFFFFF" font-family="sans-serif" font-size="14" lengthAdjust="spacing" textLength="76.665" x="1348.9079" y="1114.7683">component</text><rect fill="#686868" height="16.4883" style="stroke:none;stroke-width:1.0;" width="145.5713" x="1344.4782" y="1117.7214"/><text fill="#FFFFFF" font-family="sans-serif" font-size="14" lengthAdjust="spacing" textLength="106.8115" x="1348.9079" y="1131.2566">external person</text><rect fill="#999999" height="16.4883" style="stroke:none;stroke-width:1.0;" width="145.5713" x="1344.4782" y="1134.2097"/><text fill="#FFFFFF" font-family="sans-serif" font-size="14" lengthAdjust="spacing" textLength="107.7412" x="1348.9079" y="1147.7448">external system</text><rect fill="#B3B3B3" height="16.4883" style="stroke:none;stroke-width:1.0;" width="145.5713" x="1344.4782" y="1150.698"/><text fill="#FFFFFF" font-family="sans-serif" font-size="14" lengthAdjust="spacing" textLength="123.7373" x="1348.9079" y="1164.2331">external container</text><rect fill="#CCCCCC" height="16.4883" style="stroke:none;stroke-width:1.0;" width="145.5713" x="1344.4782" y="1167.1863"/><text fill="#FFFFFF" font-family="sans-serif" font-size="14" lengthAdjust="spacing" textLength="136.7119" x="1348.9079" y="1180.7214">external component</text><line style="stroke:#FFFFFF;stroke-width:1.0;" x1="1344.4782" x2="1490.0495" y1="1035.28" y2="1035.28"/><line style="stroke:#FFFFFF;stroke-width:1.0;" x1="1344.4782" x2="1490.0495" y1="1051.7683" y2="1051.7683"/><line style="stroke:#FFFFFF;stroke-width:1.0;" x1="1344.4782" x2="1490.0495" y1="1068.2566" y2="1068.2566"/><line style="stroke:#FFFFFF;stroke-width:1.0;" x1="1344.4782" x2="1490.0495" y1="1084.7448" y2="1084.7448"/><line style="stroke:#FFFFFF;stroke-width:1.0;" x1="1344.4782" x2="1490.0495" y1="1101.2331" y2="1101.2331"/><line style="stroke:#FFFFFF;stroke-width:1.0;" x1="1344.4782" x2="1490.0495" y1="1117.7214" y2="1117.7214"/><line style="stroke:#FFFFFF;stroke-width:1.0;" x1="1344.4782" x2="1490.0495" y1="1134.2097" y2="1134.2097"/><line style="stroke:#FFFFFF;stroke-width:1.0;" x1="1344.4782" x2="1490.0495" y1="1150.698" y2="1150.698"/><line style="stroke:#FFFFFF;stroke-width:1.0;" x1="1344.4782" x2="1490.0495" y1="1167.1863" y2="1167.1863"/><line style="stroke:#FFFFFF;stroke-width:1.0;" x1="1344.4782" x2="1490.0495" y1="1183.6745" y2="1183.6745"/><line style="stroke:#FFFFFF;stroke-width:1.0;" x1="1344.4782" x2="1344.4782" y1="1035.28" y2="1183.6745"/><line style="stroke:#FFFFFF;stroke-width:1.0;" x1="1490.0495" x2="1490.0495" y1="1035.28" y2="1183.6745"/><!--SRC=[bLLTInj157tVNx7cfGgfKl39DvlQLj1Kh6affOHnzoOEtTrPTZP6AOAMIYtsquyMQh48MaF1M13x4Qd-cUmc_elUsTra4yskQHuoTsREd7lEp9tP7ceeMa45kNz06RnkQiIm2xesa1hCffXXmvpTRs9VwkaCQ-08DS3g0gcRp00Zu9J6XX_Toqnb7uvEtSsEZTmPIT_gxPEaQxAx-SDzKtOgwsvfnzbUTRPEfMQIx4rMC5HYpVUgn2RJX4DIJjHsJwkLNUVxMlNl-eN5YJxvcIJZhvcyjy31maKPR1BOZZCZpnW7-Ruo0peHGxMDahlogtgsuouTDWakasHp53ILumBdu9DRFXPBGnA1C8YE-d20QadP99mNcQKcvLn1qzBUr3HbE66n7DLWWYf9kGZJdDeuamT35JhD6KoOb2cViEWiiRtm0LWKSwk9Fa_PWdJ1eScuZGeci8bmwFp-w1oyZtKeIAvsE8fs56BQb1b9MMCAyIEgappmnqzmZ3u5di93GqKAqtMaRdOjG4Fgi1tbWzlCcXSfHHlXnDrShbPMOvruDDrPqK6b96FXQS6SIItWmwXpba8HB7GJfJFmXJmfFuhGMZzyKIzNOhK6LDsf5KVa7O2ugbtjg3WD91Z39ghsd_-f7s_7QXGa_odmAbqwS8uL8oJvKPIw_IMK5gike8eNoBtR9QHPe02T3GgviOzX6L0-2QGR1mQpyKuswZ-HRkb6U3bV_5pxkXVhfPKqtX3Qe2R5DS97wCwUDw6rJhpY4c7Nld9CqrWHCzpsWgZtPFd8FIhXV-te9CABJnJlmiVuqlsO6ldE1RGWlXHEUHkVV3-jD0bQyBO7xz-DeRIdRMNBEQdWmX3GU5YY4U6LRc3UVQZlbDemmMKA0Fx5QGE4LHsId2yk3RXlzzoDdstG2-KJu3i0c-UH7XeFTpwef_hPot0BdRNNBNk891wBlpUNxBchU-wNLq4c7zDkhmEWi-Rw_ZUqYS1_]--></g></svg>